<?xml version="1.0" encoding="UTF-8"?>
<!-- Generator: visioncortex VTracer 0.6.2 -->
<svg version="1.1" xmlns="http://www.w3.org/2000/svg" width="1280" height="645">
<path d="M0 0 C422.4 0 844.8 0 1280 0 C1280 212.85 1280 425.7 1280 645 C857.6 645 435.2 645 0 645 C0 432.15 0 219.3 0 0 Z " fill="#F3C80B" transform="translate(0,0)"/>
<path d="M0 0 C0.82502518 0.00719055 1.65005035 0.0143811 2.50007629 0.02178955 C3.36843613 0.0214975 4.23679596 0.02120544 5.13146973 0.02090454 C8.01013582 0.02230116 10.8885451 0.03787791 13.76716614 0.05352783 C15.75970824 0.05725678 17.75225217 0.06010431 19.74479675 0.06210327 C24.99573303 0.06974901 30.24655912 0.08940556 35.49745178 0.11151123 C40.8529664 0.13194942 46.20849878 0.14110065 51.56404114 0.15118408 C62.07711045 0.17265058 72.59009789 0.20679784 83.10310364 0.24884033 C84.59669161 5.10144618 85.59083496 9.82778928 86.21296692 14.87139893 C86.30785369 15.60518674 86.40274046 16.33897455 86.50050259 17.09499836 C86.81359549 19.52842905 87.11867832 21.96278778 87.42341614 24.39727783 C87.64516475 26.13932972 87.86725446 27.88133822 88.08966064 29.62330627 C88.68665265 34.31470671 89.27560282 39.00708274 89.86218643 43.69979477 C90.22831965 46.62556648 90.59647053 49.55107806 90.96513367 52.47653198 C94.42251122 79.93879915 97.67897484 107.41887994 100.66560364 134.93634033 C100.74791481 135.69456841 100.83022598 136.45279648 100.91503143 137.23400116 C103.66153569 162.56908256 103.66153569 162.56908256 104.72370911 173.65362549 C104.81530807 174.60477737 104.90690704 175.55592926 105.00128174 176.53590393 C105.16502746 178.25602535 105.3247357 179.97653831 105.47946167 181.69749451 C105.52201786 185.27627445 105.52201786 185.27627445 107.10310364 188.24884033 C107.19285461 187.5557225 107.28260559 186.86260468 107.37507629 186.14848328 C112.8011141 144.31482136 118.54260841 102.52749148 124.51911926 60.76889038 C125.24413004 55.70305803 125.96528225 50.63669964 126.68318176 45.56985474 C127.53815485 39.53862637 128.40164756 33.50867875 129.27185059 27.47962952 C129.59510196 25.23117635 129.91553754 22.98231644 130.23306274 20.73304749 C130.66952968 17.64589358 131.11636191 14.56041842 131.56599426 11.47515869 C131.69272522 10.56209174 131.81945618 9.64902479 131.95002747 8.70828915 C132.07293152 7.88010961 132.19583557 7.05193007 132.32246399 6.19865417 C132.42562172 5.47935699 132.52877945 4.7600598 132.63506317 4.01896572 C133.10310364 2.24884033 133.10310364 2.24884033 135.10310364 0.24884033 C137.9293459 0.05541679 140.65722786 -0.01337177 143.48420715 0.00592041 C144.78433746 0.00307289 144.78433746 0.00307289 146.11073303 0.00016785 C148.98458309 -0.00354627 151.85818218 0.00717249 154.73200989 0.01837158 C156.72215749 0.01956304 158.71230567 0.02001662 160.70245361 0.01976013 C164.87632255 0.02132605 169.05010585 0.02962457 173.22395325 0.04302979 C178.58669877 0.06003078 183.94935017 0.06384388 189.31211948 0.0630846 C193.42205715 0.0633559 197.53197405 0.06883035 201.64190483 0.07608604 C203.61995728 0.07927853 205.59801209 0.08124146 207.57606697 0.08197975 C210.33455074 0.08413658 213.0929326 0.09286615 215.85139465 0.10357666 C216.67687302 0.10312347 217.50235138 0.10267029 218.35284424 0.10220337 C223.98862928 0.13436598 223.98862928 0.13436598 225.10310364 1.24884033 C225.20050843 3.0107592 225.22681811 4.77662871 225.22615147 6.54123783 C225.22814251 7.69623282 225.23013356 8.8512278 225.23218495 10.04122263 C225.22927211 11.32621368 225.22635926 12.61120472 225.22335815 13.93513489 C225.22379374 15.30130707 225.2246684 16.66747917 225.22594732 18.03365082 C225.22819484 21.80532297 225.22416751 25.57696699 225.21916926 29.34863555 C225.21486861 33.40932396 225.21631091 37.47001065 225.21707153 41.53070068 C225.21759701 48.57194459 225.2144477 55.61317927 225.20883369 62.65442085 C225.20072195 72.83499413 225.19810381 83.01556293 225.1968457 93.19613909 C225.19465467 109.7116742 225.1879932 126.22720438 225.17854309 142.74273682 C225.1693703 158.79026261 225.16228882 174.83778706 225.15803528 190.88531494 C225.15777255 191.87374775 225.15750983 192.86218057 225.15723915 193.88056589 C225.15593415 198.83902283 225.15467043 203.79747978 225.15342724 208.75593674 C225.14305303 249.92024137 225.12543333 291.08454057 225.10310364 332.24884033 C217.16696577 332.27196797 209.23084188 332.28975757 201.29467869 332.3006525 C197.60995866 332.30588041 193.92526161 332.31297638 190.24055481 332.32427979 C186.68739533 332.33511195 183.13425801 332.34111786 179.5810833 332.34371758 C178.22264698 332.34557123 176.86421192 332.34919071 175.50578499 332.35457039 C173.6092814 332.36178508 171.71275571 332.36224842 169.8162384 332.36236572 C168.73480057 332.36458633 167.65336273 332.36680695 166.53915405 332.36909485 C164.10310364 332.24884033 164.10310364 332.24884033 163.10310364 331.24884033 C163.00430659 329.3843431 162.97678144 327.51605387 162.97612 325.64894104 C162.97188554 323.81891352 162.97188554 323.81891352 162.96756554 321.95191574 C162.96951075 320.58384944 162.97156235 319.21578329 162.97370911 317.84771729 C162.97238043 316.41217124 162.97062846 314.97662553 162.96848488 313.54108047 C162.96395544 309.60231118 162.96582878 305.66356726 162.9689045 301.72479749 C162.97076265 298.39121219 162.96907885 295.05763267 162.96734166 291.7240476 C162.96223301 281.86533585 162.96673552 272.00664326 162.97412872 262.14793396 C162.97759636 257.51066229 162.97987826 252.87339102 162.98170745 248.23611844 C162.99901038 204.46046306 163.02828401 160.68407306 163.45098114 116.91012192 C163.47797245 114.01292179 163.50160756 111.11571105 163.52442932 108.21847534 C163.560387 103.75985771 163.60633677 99.30146098 163.66104126 94.84303474 C163.67919557 93.27247311 163.69451716 91.70187518 163.70648193 90.1312542 C163.77972084 81.0179411 164.43449786 72.22504606 166.10310364 63.24884033 C165.11310364 63.24884033 164.12310364 63.24884033 163.10310364 63.24884033 C162.99670563 64.55335648 162.89030762 65.85787262 162.78068542 67.20191956 C161.45707345 83.08810348 159.79829127 98.93198513 158.06361818 114.77765584 C157.74350037 117.70467043 157.42503396 120.63186399 157.10646856 123.55904788 C156.1634717 132.22220886 155.21489292 140.88475275 154.26441956 149.54709625 C153.81665686 153.62796505 153.3697507 157.70892714 152.92307544 161.78991508 C146.69796607 218.65750744 140.09776855 275.47017782 133.10310364 332.24884033 C115.28310364 332.24884033 97.46310364 332.24884033 79.10310364 332.24884033 C77.31882045 327.78813236 76.57251806 324.13070053 76.11245728 319.44749451 C76.02993279 318.66758457 75.9474083 317.88767463 75.86238307 317.08413106 C75.58777361 314.47198307 75.32362287 311.85888423 75.05940247 309.2456665 C74.86420413 307.36843383 74.66835614 305.49126861 74.47190857 303.61416626 C73.93823293 298.49734714 73.41356298 293.37963888 72.89032578 288.26174331 C72.33453928 282.8418604 71.77010888 277.42287795 71.20654297 272.00379944 C70.13259382 261.6649589 69.06580495 251.32539323 68.00182408 240.98552257 C66.0099939 221.63165383 64.0033239 202.27931671 61.99760056 182.9268837 C61.53987603 178.51010539 61.0825952 174.09328149 60.62569046 169.6764183 C56.9193719 133.85209181 53.09921974 98.04204458 49.10310364 62.24884033 C48.77310364 62.24884033 48.44310364 62.24884033 48.10310364 62.24884033 C48.12815979 63.37487167 48.15321594 64.50090302 48.17903137 65.66105652 C48.51372677 80.83563149 48.81689987 96.01077647 49.10310364 111.18634033 C49.13873539 113.07434168 49.13873539 113.07434168 49.17508698 115.00048447 C50.09582189 164.35459701 50.27799935 213.69948412 50.22810364 263.06134033 C50.22725517 263.92568365 50.22640671 264.79002696 50.22553253 265.6805625 C50.20338096 287.87003281 50.16320323 310.05943978 50.10310364 332.24884033 C42.68850422 332.27196916 35.27391253 332.28975818 27.8592844 332.3006525 C24.41670016 332.30588015 20.97414052 332.31297564 17.53157043 332.32427979 C13.57755321 332.33718268 9.62354608 332.34206951 5.66950989 332.34649658 C3.80704369 332.35423851 3.80704369 332.35423851 1.9069519 332.36213684 C0.19529091 332.36225014 0.19529091 332.36225014 -1.5509491 332.36236572 C-2.56132736 332.36458633 -3.57170563 332.36680695 -4.61270142 332.36909485 C-6.89689636 332.24884033 -6.89689636 332.24884033 -7.89689636 331.24884033 C-7.99607868 329.499266 -8.02429387 327.74564713 -8.02553082 325.9932642 C-8.02875526 324.8464694 -8.03197971 323.69967461 -8.03530186 322.51812845 C-8.03375326 321.24228355 -8.03220466 319.96643864 -8.03060913 318.65193176 C-8.03247529 317.29543413 -8.03477521 315.93893703 -8.03747445 314.58244079 C-8.04362301 310.83743749 -8.04345529 307.09245639 -8.04228008 303.34744918 C-8.04207684 299.31534913 -8.04758745 295.28325637 -8.05233765 291.25115967 C-8.06066143 283.34510679 -8.06339326 275.43906136 -8.06395002 267.53300447 C-8.06442436 261.10998852 -8.06647496 254.68697505 -8.06965065 248.26395988 C-8.07846186 230.07395126 -8.08306929 211.88394856 -8.08232018 193.69393779 C-8.08228022 192.71230709 -8.08224026 191.7306764 -8.0821991 190.71929932 C-8.08215822 189.73647718 -8.08211734 188.75365504 -8.08207522 187.74105041 C-8.08166859 171.80570052 -8.09124106 155.87037424 -8.10533746 139.93503118 C-8.11968037 123.59274884 -8.1266088 107.25047804 -8.12574369 90.90818924 C-8.125411 81.72518063 -8.1281894 72.54219676 -8.13892174 63.3591938 C-8.14799936 55.54160773 -8.15022466 47.72405762 -8.14341231 39.90646858 C-8.1401332 35.91438839 -8.14014013 31.92237731 -8.14876556 27.93030357 C-8.15657059 24.28054544 -8.15526133 20.63091193 -8.14648143 16.98115706 C-8.14419583 15.0251996 -8.15182189 13.06923846 -8.15972108 11.11329561 C-8.15512228 9.96389307 -8.15052348 8.81449053 -8.14578533 7.63025761 C-8.1460027 6.63213521 -8.14622007 5.63401281 -8.14644402 4.60564429 C-7.60727617 -0.48642084 -4.3394741 0.01587347 0 0 Z " fill="#000100" transform="translate(143.8968963623047,163.75115966796875)"/>
<path d="M0 0 C18.94486034 17.91725317 26.3600509 42.09426738 27.93359375 67.53125 C28.07774969 73.20737528 28.0808729 78.88117019 28.07885742 84.55883789 C28.08185513 86.25537184 28.08525905 87.95190511 28.08903503 89.6484375 C28.0978189 94.2294308 28.10021082 98.81040539 28.10085082 103.3914063 C28.10156473 106.26289196 28.10370553 109.13437297 28.10634804 112.00585747 C28.11558424 122.05070163 28.11968526 132.09553259 28.11889648 142.14038086 C28.11829678 151.45892727 28.12883208 160.77741559 28.14464015 170.09594733 C28.15778 178.13205549 28.16307766 186.16814482 28.16244107 194.20426363 C28.16218789 198.9878767 28.16493829 203.77143813 28.17561913 208.55504036 C28.18540884 213.06215435 28.18530608 217.56916849 28.17810249 222.07628632 C28.17706987 223.71515743 28.17933909 225.35403513 28.18546295 226.99289513 C28.23617101 241.52370923 27.63132988 256.33873954 23.68359375 270.40625 C23.35935425 271.58755493 23.35935425 271.58755493 23.02856445 272.79272461 C19.82202647 283.95101952 14.6347311 292.86369541 6.93359375 301.53125 C6.37929688 302.16804688 5.825 302.80484375 5.25390625 303.4609375 C-8.63746192 318.41575969 -29.662922 323.71665191 -49.37011719 324.6953125 C-75.96360165 325.57759564 -100.30983105 323.15659358 -121.31640625 305.21875 C-137.81154691 289.6617216 -143.60731769 266.54263591 -145.06640625 244.53125 C-145.2185285 238.74548958 -145.22393513 232.96154113 -145.22753906 227.17407227 C-145.23217545 225.43004758 -145.23720119 223.68602389 -145.24258423 221.94200134 C-145.25563379 217.22659248 -145.2621389 212.51119782 -145.26659489 207.79577374 C-145.26953851 204.84036336 -145.27364574 201.88495674 -145.27809906 198.92954826 C-145.29175621 189.65560951 -145.3014308 180.38167951 -145.30530095 171.1077314 C-145.30977334 160.45328032 -145.32729066 149.79895805 -145.35630155 139.14454609 C-145.37802391 130.87574813 -145.38801087 122.60698613 -145.38934207 114.33815998 C-145.39038284 109.41530092 -145.39613332 104.49256323 -145.41416168 99.56973457 C-145.43082543 94.92963347 -145.43271066 90.2897426 -145.42402267 85.64962196 C-145.4232619 83.96279074 -145.4274653 82.27594733 -145.43748093 80.58914566 C-145.52105194 65.61549738 -144.40038989 50.22285728 -139.25390625 36.03125 C-138.86706665 34.92438843 -138.86706665 34.92438843 -138.47241211 33.79516602 C-131.31117251 13.95451161 -118.325327 -0.3561435 -99.29467773 -9.29833984 C-68.95255679 -22.98296671 -26.6418272 -21.44921629 0 0 Z " fill="#000100" transform="translate(553.06640625,176.46875)"/>
<path d="M0 0 C1.14726059 0.00142502 2.29452118 0.00285004 3.47654724 0.00431824 C4.77451736 0.00124161 6.07248749 -0.00183502 7.40979004 -0.00500488 C8.83235348 0.00189235 10.25491517 0.00915928 11.67747498 0.01676941 C13.12953653 0.01796109 14.58159887 0.0184144 16.03366089 0.01815796 C19.07766033 0.01972312 22.12154221 0.02801593 25.16551208 0.04142761 C29.07544649 0.05843264 32.9852518 0.06224155 36.89521885 0.06148243 C39.89340456 0.06175378 42.89156181 0.06722912 45.88973808 0.07448387 C47.33190127 0.07767498 48.77406768 0.07963897 50.21623421 0.08037758 C52.22749611 0.08253559 54.23874609 0.09206467 56.24998474 0.10197449 C57.96968224 0.10769218 57.96968224 0.10769218 59.72412109 0.11352539 C62.29856873 0.24723816 62.29856873 0.24723816 63.29856873 1.24723816 C63.60417985 3.42416741 63.84581872 5.61007953 64.06370544 7.79753113 C64.13419948 8.49326453 64.20469351 9.18899794 64.27732372 9.90581417 C64.51532023 12.26660352 64.74678687 14.62798801 64.97825623 16.98942566 C65.14812155 18.69011744 65.31833234 20.39077475 65.48886108 22.09140015 C65.95752403 26.77902119 66.42011528 31.46722397 66.88133621 36.15558243 C67.17371695 39.12374292 67.46761612 42.09174908 67.76203918 45.05970764 C69.28896263 60.45411397 70.79782824 75.85025874 72.29856873 91.24723816 C72.41549828 92.44680901 72.53242783 93.64637985 72.6529007 94.88230133 C74.36528176 112.45709938 76.0646261 130.03313255 77.7549057 147.61006927 C78.10525625 151.24936067 78.45673791 154.88854118 78.80851746 158.5276947 C79.48279613 165.50800801 80.15196008 172.48879999 80.81809998 179.46989441 C80.92483284 180.58528343 81.0315657 181.70067245 81.1415329 182.84986115 C82.33902654 195.40479738 83.45873822 207.96206139 84.44065857 220.53581238 C84.57648928 222.26356289 84.57648928 222.26356289 84.71506405 224.02621746 C85.14587822 229.52782406 85.56497225 235.02992768 85.96478271 240.53387451 C86.11314822 242.47667825 86.26174975 244.41946398 86.41062927 246.36222839 C86.47131025 247.2542716 86.53199123 248.14631481 86.59451103 249.06538963 C86.7571833 251.13293751 87.01730076 253.19246206 87.29856873 255.24723816 C87.95856873 255.57723816 88.61856873 255.90723816 89.29856873 256.24723816 C89.28565292 255.23288696 89.28565292 255.23288696 89.2724762 254.19804382 C89.22625296 247.78406525 89.48401946 241.47859317 90.04075623 235.09098816 C90.16614525 233.58888794 90.16614525 233.58888794 90.29406738 232.05644226 C90.58249975 228.6196235 90.8779643 225.18344703 91.17356873 221.74723816 C91.38938514 219.20038351 91.60495004 216.65350753 91.82029724 214.10661316 C92.63602878 204.48592863 93.46731763 194.86659192 94.29856873 185.24723816 C94.47949927 183.15218625 94.66042773 181.05713416 94.84135437 178.96208191 C96.73688104 157.01864482 98.63782137 135.07567995 100.55589294 113.13420105 C100.66405964 111.89682096 100.77222633 110.65944086 100.88367081 109.3845644 C101.3152521 104.44811904 101.7468815 99.51167791 102.17875671 94.57525826 C103.46834268 79.83155222 104.74320773 65.08675855 105.99119759 50.33947372 C106.4026832 45.48759693 106.81870364 40.63610723 107.23520184 35.78465843 C107.60642069 31.4546903 107.97010147 27.12417928 108.32789516 22.79308224 C108.59230955 19.61964143 108.86814222 16.44719194 109.14231873 13.27458191 C109.23147049 12.16284103 109.32062225 11.05110016 109.41247559 9.90567017 C109.50056992 8.91100235 109.58866425 7.91633453 109.6794281 6.89152527 C109.75141418 6.03481735 109.82340027 5.17810944 109.89756775 4.29544067 C110.29856873 2.24723816 110.29856873 2.24723816 112.29856873 0.24723816 C114.96876526 0.00672913 114.96876526 0.00672913 118.40061951 0.02018738 C119.68179657 0.02033844 120.96297363 0.0204895 122.28297424 0.02064514 C123.68661147 0.03085921 125.09024712 0.04129121 126.49388123 0.05192566 C127.92591658 0.05565524 129.35795447 0.05850247 130.78999329 0.0605011 C134.5613559 0.06814189 138.33256476 0.08779408 142.10386658 0.10990906 C145.95129822 0.13035797 149.79875467 0.13950076 153.64622498 0.14958191 C161.19707636 0.17103966 168.74780101 0.20518084 176.29856873 0.24723816 C177.81840504 5.25832036 176.86198041 9.81840748 176.08818054 14.87948608 C175.94570475 15.85651798 175.80322896 16.83354988 175.65643573 17.8401888 C175.17575928 21.12189241 174.68293245 24.40165534 174.19017029 27.68156433 C173.842909 30.03500301 173.4963955 32.38855212 173.15057373 34.74220276 C172.30353713 40.49374481 171.44865066 46.24408099 170.59036633 51.99395444 C169.58071437 58.76081204 168.58076 65.52909227 167.58130965 72.29746286 C165.78426848 84.46539088 163.97958115 96.63217218 162.17015076 108.79826355 C160.43994341 120.43179215 158.71317496 132.06582167 156.99143982 143.7006073 C156.88678715 144.40779234 156.78213447 145.11497738 156.67431051 145.84359227 C156.14786797 149.40113668 155.62149338 152.95869115 155.09515095 156.51625037 C151.44179271 181.20880994 147.77884928 205.89993295 144.10868549 230.58999991 C141.76110729 246.38355607 139.42034852 262.17808523 137.09218264 277.97451484 C136.30490752 283.31410286 135.51595488 288.65344328 134.72694373 293.99277502 C134.02882168 298.71851743 133.33350214 303.44466026 132.64045048 308.17114878 C132.13820056 311.5905424 131.63164496 315.00929503 131.12571716 318.42814636 C130.95146461 319.62378771 130.77721207 320.81942905 130.59767914 322.05130196 C130.35943546 323.65308705 130.35943546 323.65308705 130.11637878 325.28723145 C129.91368189 326.66516105 129.91368189 326.66516105 129.70689011 328.07092762 C129.29856873 330.24723816 129.29856873 330.24723816 128.29856873 332.24723816 C100.90856873 332.24723816 73.51856873 332.24723816 45.29856873 332.24723816 C44.05248029 327.88592863 43.01525876 324.14999793 42.35807133 319.76493835 C42.19918653 318.72016642 42.04030172 317.67539448 41.87660223 316.59896278 C41.62577129 314.90215402 41.62577129 314.90215402 41.36987305 313.17106628 C41.18652104 311.95624762 41.00316903 310.74142895 40.8142609 309.48979759 C40.30813495 306.13003143 39.80617035 302.76969175 39.30598009 299.40903997 C38.76465942 295.77900986 38.21796616 292.14978847 37.67195129 288.52046204 C36.60321676 281.41087672 35.53943839 274.30055831 34.47733349 267.18997991 C33.23754334 258.89109697 31.99285243 250.59295131 30.74797284 242.29483056 C28.52363901 227.46671069 26.3037745 212.63792518 24.08641052 197.8087616 C21.94125938 183.46256472 19.7929626 169.11684368 17.64109802 154.77165222 C17.50890488 153.89039689 17.37671173 153.00914155 17.24051274 152.10118151 C17.10853542 151.22136724 16.9765581 150.34155297 16.84058148 149.43507767 C14.38454183 133.06197212 11.93140808 116.68843234 9.4796566 100.31468415 C8.61655581 94.5509771 7.75263078 88.78739394 6.8884449 83.02384949 C5.83129062 75.97291623 4.77584582 68.92172927 3.72240586 61.87024009 C3.18638902 58.28245949 2.64974345 54.69477653 2.11116219 51.10737991 C0.8179465 42.49051824 -0.45206621 33.87056464 -1.70143127 25.24723816 C-1.87046125 24.09795586 -2.03949122 22.94867355 -2.21364331 21.76456451 C-2.68903631 18.50954093 -3.14903215 15.25274195 -3.60391235 11.99479675 C-3.8182417 10.54693252 -3.8182417 10.54693252 -4.03690094 9.0698185 C-4.155594 8.19463255 -4.27428706 7.3194466 -4.39657688 6.41773987 C-4.50447656 5.65583029 -4.61237624 4.89392071 -4.72354561 4.10892296 C-4.68379647 0.76266023 -3.06336267 0.28036255 0 0 Z " fill="#000100" transform="translate(607.7014312744141,163.7527618408203)"/>
<path d="M0 0 C15.46262509 12.3875064 21.977122 31.35173111 24.28979492 50.38500977 C25.09591724 58.32574212 25.11426391 66.21187599 25.0625 74.1875 C25.05746963 75.53450352 25.05290947 76.88150889 25.04882812 78.22851562 C25.03715354 81.48572537 25.02077883 84.74283778 25 88 C17.19424805 88.02312792 9.38850405 88.04091738 1.58272648 88.05181217 C-2.0414596 88.05704002 -5.6656223 88.06413587 -9.28979492 88.07543945 C-12.78459975 88.08627184 -16.27938204 88.09227758 -19.77420235 88.09487724 C-21.76239389 88.09763551 -23.75057631 88.10544688 -25.73875427 88.11329651 C-27.54050865 88.11340981 -27.54050865 88.11340981 -29.37866211 88.11352539 C-30.97417152 88.11685631 -30.97417152 88.11685631 -32.60191345 88.12025452 C-35 88 -35 88 -36 87 C-36.12307668 84.65887571 -36.18609149 82.34272194 -36.2109375 80 C-36.23904426 78.5403541 -36.26770889 77.08071886 -36.296875 75.62109375 C-36.33785568 73.32178483 -36.37473751 71.0226667 -36.40136719 68.72314453 C-36.37922725 54.58333482 -36.37922725 54.58333482 -42.25 42 C-45.73698379 39.46401179 -47.68381255 39 -52 39 C-55.21297607 39.6014438 -58.20339256 40.27988708 -61 42 C-62.23654396 44.33831314 -62.23654396 44.33831314 -63 47 C-63.28101563 47.7115625 -63.56203125 48.423125 -63.8515625 49.15625 C-65.98042656 55.60735321 -66.32171754 61.82759666 -66.375 68.5625 C-66.38869629 69.43648438 -66.40239258 70.31046875 -66.41650391 71.2109375 C-66.32416423 84.52781632 -61.29763064 95.03489371 -52.0625 104.375 C-46.54178757 109.81130028 -40.63705513 114.61741604 -34.484375 119.3125 C-28.80492513 123.65299576 -23.40430104 128.32468379 -18 133 C-17.16082031 133.72574219 -16.32164063 134.45148438 -15.45703125 135.19921875 C-12.93233474 137.42737668 -10.45931138 139.69982053 -8 142 C-7.46761719 142.49306641 -6.93523437 142.98613281 -6.38671875 143.49414062 C10.48199467 159.23954243 23.49659914 177.99265408 28 201 C28.17732666 201.88002686 28.35465332 202.76005371 28.53735352 203.66674805 C30.172767 212.81181722 30.339155 221.8223773 30.31567383 231.08178711 C30.31252584 233.66628752 30.33601777 236.24962539 30.36132812 238.83398438 C30.41729235 253.2953981 29.09109043 267.7019259 24.25 281.4375 C23.99323486 282.18064453 23.73646973 282.92378906 23.47192383 283.68945312 C21.16189987 290.07554041 18.17036199 295.61722349 14 301 C13.01580078 302.27230469 13.01580078 302.27230469 12.01171875 303.5703125 C-0.4304816 318.44636191 -17.36494298 325.5572168 -36.35302734 327.77294922 C-62.04856054 329.97704863 -87.85930387 328.05850887 -109 312 C-109.81339844 311.39414062 -110.62679688 310.78828125 -111.46484375 310.1640625 C-126.47059858 298.00555346 -132.43601892 277.23597982 -134.53125 258.6875 C-135.15061915 252.31146806 -135.18607781 245.94018114 -135.18530273 239.53808594 C-135.18752618 237.47571234 -135.20585693 235.41384453 -135.22460938 233.3515625 C-135.22654297 232.04960937 -135.22847656 230.74765625 -135.23046875 229.40625 C-135.23457764 228.22353516 -135.23868652 227.04082031 -135.24291992 225.82226562 C-135 223 -135 223 -133 221 C-130.48838806 220.75276184 -130.48838806 220.75276184 -127.28100586 220.75708008 C-125.48420631 220.75246513 -125.48420631 220.75246513 -123.65110779 220.74775696 C-121.70265709 220.75853523 -121.70265709 220.75853523 -119.71484375 220.76953125 C-118.37488347 220.770723 -117.03492234 220.77117622 -115.69496155 220.7709198 C-112.88635023 220.77248472 -110.07786637 220.78077577 -107.26928711 220.79418945 C-103.6620208 220.81119573 -100.05489443 220.81500334 -96.44759274 220.81424427 C-93.68102167 220.81451564 -90.91448144 220.81999125 -88.14792061 220.82724571 C-86.16859946 220.83199227 -84.1892718 220.83371039 -82.20994568 220.83540344 C-81.01523148 220.84178329 -79.82051727 220.84816315 -78.58959961 220.85473633 C-77.00313881 220.86045403 -77.00313881 220.86045403 -75.3846283 220.86628723 C-73 221 -73 221 -72 222 C-71.88911531 224.45148678 -71.83834918 226.87947074 -71.82421875 229.33203125 C-71.80097753 230.86915367 -71.7768586 232.40626302 -71.75195312 233.94335938 C-71.71716861 236.36100446 -71.68769333 238.77818282 -71.67407227 241.19604492 C-71.97794184 257.04210687 -71.97794184 257.04210687 -65.33276367 270.796875 C-59.68799402 275.07989191 -53.84779776 275.63118832 -47 275 C-42.83468189 273.66395457 -41.34686868 272.47212681 -38.75 268.9375 C-34.96176636 261.44890411 -34.66120747 252.92147626 -34.75 244.6875 C-34.75676758 243.77250732 -34.76353516 242.85751465 -34.77050781 241.91479492 C-35.08547937 221.16512797 -41.5676036 206.91562396 -56 192 C-58.583481 189.566026 -61.28988265 187.29120331 -64 185 C-66.37942258 182.94259358 -68.75150302 180.87673773 -71.125 178.8125 C-74.88676014 175.54138393 -78.65156033 172.27765047 -82.484375 169.08984375 C-109.32399656 146.68684211 -109.32399656 146.68684211 -117 133 C-117.32258789 132.42991211 -117.64517578 131.85982422 -117.97753906 131.27246094 C-133.46701414 103.47120439 -134.46010198 69.263654 -126.23510742 38.88671875 C-120.72695038 20.22268326 -110.15719871 4.26618951 -92.875 -5.25 C-65.16430162 -19.8878889 -25.61108886 -18.21909377 0 0 Z " fill="#000100" transform="translate(1222,173)"/>
<path d="M0 0 C0.98501967 0.00054477 1.97003935 0.00108953 2.9849081 0.00165081 C4.11370892 -0.00254368 5.24250973 -0.00673817 6.40551662 -0.01105976 C7.64975399 -0.00544025 8.89399136 0.00017925 10.17593288 0.00596905 C11.4815971 0.0040707 12.78726131 0.00217236 14.13249111 0.00021648 C17.71914864 -0.00463951 21.30568216 0.0030328 24.89232469 0.01316953 C28.63948287 0.02193625 32.38663702 0.02019286 36.13380337 0.01980877 C42.42618804 0.02074594 48.71852455 0.0294376 55.01089382 0.04307842 C62.29543745 0.05881133 69.57992832 0.06407632 76.86448771 0.06334287 C83.86119291 0.06273343 90.85788085 0.06783069 97.85458088 0.07613468 C100.83742755 0.07967362 103.82026813 0.0814988 106.8031168 0.08202839 C110.96257065 0.08321545 115.12196144 0.09291142 119.28140163 0.1036253 C120.52766323 0.10317211 121.77392483 0.10271893 123.05795193 0.10225201 C124.74692341 0.10864948 124.74692341 0.10864948 126.47001553 0.1151762 C127.9469795 0.11768997 127.9469795 0.11768997 129.45378113 0.12025452 C131.66396999 0.24888897 131.66396999 0.24888897 132.66396999 1.24888897 C132.75756189 2.96754306 132.7814161 4.69004641 132.77749538 6.41124249 C132.77737453 7.52777203 132.77725368 8.64430157 132.77712917 9.79466534 C132.77201321 10.9770982 132.76689724 12.15953106 132.76162624 13.37779522 C132.76061916 14.45798931 132.75961208 15.5381834 132.75857449 16.65111065 C132.75332374 20.70454748 132.73936262 24.75796924 132.72646999 28.81138897 C132.70584499 37.86576397 132.68521999 46.92013897 132.66396999 56.24888897 C97.02396999 56.74388897 97.02396999 56.74388897 60.66396999 57.24888897 C60.66396999 80.67888897 60.66396999 104.10888897 60.66396999 128.24888897 C82.6686627 128.53829516 82.6686627 128.53829516 104.67349148 128.8170042 C107.41902101 128.85510698 110.16454551 128.89357436 112.91006374 128.93248272 C113.62807659 128.94062496 114.34608944 128.9487672 115.08586025 128.95715618 C117.19068254 128.98139972 119.29533401 129.01177674 121.40005398 129.0435667 C122.58808117 129.05911098 123.77610836 129.07465527 125.00013638 129.09067059 C127.66396999 129.24888897 127.66396999 129.24888897 128.66396999 130.24888897 C128.75756189 131.96754306 128.7814161 133.69004641 128.77749538 135.41124249 C128.77737453 136.52777203 128.77725368 137.64430157 128.77712917 138.79466534 C128.77201321 139.9770982 128.76689724 141.15953106 128.76162624 142.37779522 C128.76061916 143.45798931 128.75961208 144.5381834 128.75857449 145.65111065 C128.75332374 149.70454748 128.73936262 153.75796924 128.72646999 157.81138897 C128.70584499 166.86576397 128.68521999 175.92013897 128.66396999 185.24888897 C106.22396999 185.57888897 83.78396999 185.90888897 60.66396999 186.24888897 C60.66396999 215.61888897 60.66396999 244.98888897 60.66396999 275.24888897 C86.24374598 275.53824645 86.24374598 275.53824645 111.82363796 275.8170042 C116.76577663 275.87596416 116.76577663 275.87596416 119.07781887 275.90478802 C120.69604399 275.92403619 122.31429278 275.94135181 123.9325552 275.95715618 C126.38070171 275.98143782 128.82870356 276.01180957 131.27676296 276.0435667 C132.00029902 276.04933696 132.72383507 276.05510721 133.46929646 276.06105232 C138.43591732 276.13486263 138.43591732 276.13486263 140.66396999 277.24888897 C139.07373364 290.89780701 137.38511249 304.52876756 135.55459499 318.14732647 C135.36978362 319.52711742 135.18505023 320.90691881 135.00039577 322.28673077 C134.55568173 325.60755299 134.11019639 328.92826969 133.66396999 332.24888897 C115.81866149 332.27221723 97.97335693 332.28986779 80.1280365 332.30070114 C71.84272725 332.30586425 63.55742747 332.31290724 55.27212429 332.32432842 C48.05327391 332.3342748 40.83443038 332.34074229 33.61557335 332.34297746 C29.79088744 332.34428465 25.96622113 332.347371 22.14154148 332.35461903 C18.54571213 332.36137851 14.94991054 332.36350608 11.35407543 332.36199665 C9.39690962 332.36240533 7.43974687 332.3678009 5.48258877 332.37330914 C3.75141811 332.37124714 3.75141811 332.37124714 1.98527431 332.36914349 C0.975911 332.37006528 -0.03345232 332.37098707 -1.0734024 332.3719368 C-3.33603001 332.24888897 -3.33603001 332.24888897 -4.33603001 331.24888897 C-4.43521232 329.49931464 -4.46342751 327.74569577 -4.46466446 325.99331284 C-4.46788891 324.84651804 -4.47111335 323.69972324 -4.47443551 322.51817709 C-4.47288691 321.24233218 -4.4713383 319.96648728 -4.46974277 318.6519804 C-4.47160893 317.29548276 -4.47390885 315.93898567 -4.4766081 314.58248943 C-4.48275666 310.83748612 -4.48258894 307.09250503 -4.48141372 303.34749782 C-4.48121048 299.31539777 -4.48672109 295.283305 -4.49147129 291.25120831 C-4.49979507 283.34515543 -4.50252691 275.43911 -4.50308367 267.53305311 C-4.503558 261.11003716 -4.50560861 254.68702369 -4.50878429 248.26400852 C-4.51759551 230.0739999 -4.52220293 211.88399719 -4.52145382 193.69398642 C-4.52141386 192.71235573 -4.52137391 191.73072503 -4.52133274 190.71934795 C-4.52129186 189.73652582 -4.52125098 188.75370368 -4.52120886 187.74109905 C-4.52080223 171.80574916 -4.5303747 155.87042288 -4.54447111 139.93507982 C-4.55881401 123.59279748 -4.56574245 107.25052667 -4.56487733 90.90823787 C-4.56454464 81.72522926 -4.56732305 72.5422454 -4.57805538 63.35924244 C-4.58713301 55.54165636 -4.5893583 47.72410626 -4.58254596 39.90651722 C-4.57926685 35.91443702 -4.57927378 31.92242595 -4.58789921 27.93035221 C-4.59570423 24.28059408 -4.59439497 20.63096056 -4.58561508 16.98120569 C-4.58332948 15.02524824 -4.59095553 13.06928709 -4.59885472 11.11334425 C-4.59425592 9.96394171 -4.58965713 8.81453917 -4.58491898 7.63030624 C-4.58513634 6.63218385 -4.58535371 5.63406145 -4.58557767 4.60569292 C-4.23619835 1.30604843 -3.30354841 0.35197183 0 0 Z " fill="#000100" transform="translate(924.3360300064087,163.7511110305786)"/>
<path d="M0 0 C1.61430153 0.00213753 1.61430153 0.00213753 3.26121521 0.00431824 C4.47910233 0.00124161 5.69698944 -0.00183502 6.95178223 -0.00500488 C8.28596688 0.00189233 9.62014967 0.00915926 10.95433044 0.01676941 C12.31671098 0.01796114 13.67909235 0.01841439 15.04147339 0.01815796 C17.89716227 0.01972293 20.75272582 0.02801436 23.60838318 0.04142761 C27.27618307 0.05843363 30.94384533 0.06224151 34.61168003 0.06148243 C37.42457401 0.0617538 40.23743766 0.06722935 43.05032158 0.07448387 C44.40316984 0.07767464 45.75602155 0.0796389 47.10887337 0.08037758 C48.99560398 0.08253589 50.88232188 0.09206541 52.76902771 0.10197449 C53.84443314 0.10578629 54.91983856 0.10959808 56.02783203 0.11352539 C58.45042419 0.24723816 58.45042419 0.24723816 59.45042419 1.24723816 C59.54782899 3.00915703 59.57413867 4.77502654 59.57347202 6.53963566 C59.57546307 7.69463064 59.57745412 8.84962563 59.5795055 10.03962046 C59.57659266 11.3246115 59.57367982 12.60960255 59.57067871 13.93353271 C59.57111429 15.29970489 59.57198896 16.66587699 59.57326788 18.03204864 C59.5755154 21.80372079 59.57148806 25.57536482 59.56648982 29.34703338 C59.56218917 33.40772178 59.56363146 37.46840847 59.56439209 41.52909851 C59.56491757 48.57034242 59.56176826 55.61157709 59.55615425 62.65281868 C59.54804251 72.83339196 59.54542437 83.01396075 59.54416626 93.19453692 C59.54197523 109.71007203 59.53531375 126.22560221 59.52586365 142.74113464 C59.51669085 158.78866043 59.50960937 174.83618489 59.50535583 190.88371277 C59.50509311 191.87214558 59.50483039 192.86057839 59.5045597 193.87896372 C59.50325471 198.83742066 59.50199099 203.79587761 59.5007478 208.75433457 C59.49037359 249.91863919 59.47275388 291.0829384 59.45042419 332.24723816 C51.25351859 332.27036526 43.05662651 332.28815512 34.85969639 332.29905033 C31.05390842 332.30427836 27.24814271 332.31137454 23.44236755 332.32267761 C19.77249875 332.33350936 16.10265141 332.3395156 12.43276787 332.3421154 C11.02967427 332.34396913 9.6265819 332.34758876 8.22349739 332.35296822 C6.26472739 332.36018235 4.30593599 332.36064624 2.34715271 332.36076355 C1.23018509 332.36298416 0.11321747 332.36520477 -1.03759766 332.36749268 C-3.54957581 332.24723816 -3.54957581 332.24723816 -4.54957581 331.24723816 C-4.64875812 329.49766383 -4.67697331 327.74404496 -4.67821026 325.99166203 C-4.6814347 324.84486723 -4.68465915 323.69807243 -4.68798131 322.51652628 C-4.68643271 321.24068137 -4.6848841 319.96483647 -4.68328857 318.65032959 C-4.68515473 317.29383195 -4.68745465 315.93733486 -4.6901539 314.58083862 C-4.69630246 310.83583531 -4.69613474 307.09085422 -4.69495952 303.34584701 C-4.69475628 299.31374696 -4.70026689 295.28165419 -4.70501709 291.2495575 C-4.71334087 283.34350462 -4.71607271 275.43745919 -4.71662947 267.5314023 C-4.7171038 261.10838635 -4.71915441 254.68537288 -4.72233009 248.26235771 C-4.73114131 230.07234909 -4.73574873 211.88234638 -4.73499962 193.69233561 C-4.73495966 192.71070492 -4.73491971 191.72907422 -4.73487854 190.71769714 C-4.73483766 189.73487501 -4.73479678 188.75205287 -4.73475466 187.73944824 C-4.73434803 171.80409835 -4.7439205 155.86877207 -4.75801691 139.93342901 C-4.77235981 123.59114667 -4.77928825 107.24887586 -4.77842313 90.90658706 C-4.77809044 81.72357845 -4.78086885 72.54059459 -4.79160118 63.35759163 C-4.80067881 55.54000555 -4.8029041 47.72245545 -4.79609176 39.9048664 C-4.79281265 35.91278621 -4.79281958 31.92077514 -4.80144501 27.9287014 C-4.80925003 24.27894327 -4.80794077 20.62930975 -4.79916088 16.97955488 C-4.79687527 15.02359743 -4.80450133 13.06763628 -4.81240052 11.11169344 C-4.80780172 9.9622909 -4.80320293 8.81288836 -4.79846478 7.62865543 C-4.79868214 6.63053304 -4.79889951 5.63241064 -4.79912347 4.60404211 C-4.43376762 1.15351044 -3.41868215 0.33151738 0 0 Z " fill="#000100" transform="translate(815.5495758056641,163.7527618408203)"/>
<path d="M0 0 C1.61430153 0.00213753 1.61430153 0.00213753 3.26121521 0.00431824 C4.47910233 0.00124161 5.69698944 -0.00183502 6.95178223 -0.00500488 C8.28596688 0.00189233 9.62014967 0.00915926 10.95433044 0.01676941 C12.31671098 0.01796114 13.67909235 0.01841439 15.04147339 0.01815796 C17.89716227 0.01972293 20.75272582 0.02801436 23.60838318 0.04142761 C27.27618307 0.05843363 30.94384533 0.06224151 34.61168003 0.06148243 C37.42457401 0.0617538 40.23743766 0.06722935 43.05032158 0.07448387 C44.40316984 0.07767464 45.75602155 0.0796389 47.10887337 0.08037758 C48.99560398 0.08253589 50.88232188 0.09206541 52.76902771 0.10197449 C53.84443314 0.10578629 54.91983856 0.10959808 56.02783203 0.11352539 C58.45042419 0.24723816 58.45042419 0.24723816 59.45042419 1.24723816 C59.54693717 2.64423628 59.574143 4.04609188 59.57347202 5.44641972 C59.57546307 6.35757701 59.57745412 7.2687343 59.5795055 8.20750242 C59.57659266 9.22012709 59.57367982 10.23275175 59.57067871 11.27606201 C59.57153314 12.3427236 59.57238756 13.40938519 59.57326788 14.50836986 C59.57492585 18.11217919 59.56939614 21.71594282 59.56394958 25.31974792 C59.56366776 27.89129129 59.56382536 30.46283473 59.56439209 33.03437805 C59.56491751 38.58595828 59.56176887 44.1375268 59.55615425 49.68910408 C59.54804163 57.71584121 59.54542428 65.74257266 59.54416626 73.76931345 C59.54197537 86.79084821 59.53531427 99.81237672 59.52586365 112.83390808 C59.5166905 125.48625151 59.50960919 138.13859325 59.50535583 150.79093933 C59.50509311 151.57028245 59.50483039 152.34962558 59.5045597 153.15258516 C59.50325471 157.06215711 59.50199099 160.97172907 59.5007478 164.88130105 C59.49037402 197.33661797 59.47275469 229.79192723 59.45042419 262.24723816 C51.25351859 262.27036526 43.05662651 262.28815512 34.85969639 262.29905033 C31.05390842 262.30427836 27.24814271 262.31137454 23.44236755 262.32267761 C19.77249875 262.33350936 16.10265141 262.3395156 12.43276787 262.3421154 C11.02967427 262.34396913 9.6265819 262.34758876 8.22349739 262.35296822 C6.26472739 262.36018235 4.30593599 262.36064624 2.34715271 262.36076355 C1.23018509 262.36298416 0.11321747 262.36520477 -1.03759766 262.36749268 C-3.54957581 262.24723816 -3.54957581 262.24723816 -4.54957581 261.24723816 C-4.6478338 259.86260433 -4.67696513 258.47299321 -4.67821026 257.08487797 C-4.6814347 256.18192086 -4.68465915 255.27896376 -4.68798131 254.34864432 C-4.68643271 253.34516579 -4.6848841 252.34168726 -4.68328857 251.30780029 C-4.68555413 250.25071694 -4.68781969 249.19363358 -4.6901539 248.1045174 C-4.69652595 244.53302089 -4.69566249 240.96156202 -4.69483948 237.39006042 C-4.69782896 234.84146576 -4.701231 232.29287156 -4.70501709 229.74427795 C-4.71296013 223.52266585 -4.71607266 217.30106773 -4.71662947 211.07945103 C-4.71710386 206.02466537 -4.71915474 200.96988286 -4.72233009 195.91509819 C-4.73114107 181.59871622 -4.73574877 167.28234176 -4.73499962 152.96595705 C-4.73495966 152.19341605 -4.73491971 151.42087504 -4.73487854 150.62492371 C-4.73483766 149.8514446 -4.73479678 149.0779655 -4.73475466 148.28104763 C-4.73434805 135.74062138 -4.74392006 123.20022514 -4.75801691 110.65980757 C-4.77236153 97.79796297 -4.77928815 84.93613301 -4.77842313 72.0742802 C-4.7780905 64.84746627 -4.78086643 57.62068378 -4.79160118 50.39387703 C-4.80162739 43.60027247 -4.80139047 36.80674557 -4.79408455 30.013134 C-4.79303345 27.51289587 -4.79543239 25.01265368 -4.80144501 22.51242256 C-4.8090941 19.11275497 -4.80456747 15.71332175 -4.79681396 12.31365967 C-4.80195753 11.31241186 -4.80710109 10.31116406 -4.81240052 9.27957541 C-4.80780172 8.37401056 -4.80320293 7.4684457 -4.79846478 6.53543949 C-4.79868214 5.74996048 -4.79889951 4.96448147 -4.79912347 4.15520006 C-4.37998005 0.95056308 -3.08569719 0.29922707 0 0 Z " fill="#000100" transform="translate(34.54957580566406,233.7527618408203)"/>
<path d="M0 0 C5.40908488 3.14252502 8.77725978 8.04192206 10.4347496 14.04077148 C12.00864594 23.23434117 12.03255421 32.33302287 12.00878906 41.625 C12.01150426 43.42008607 12.01506815 45.21517103 12.01940918 47.01025391 C12.02847257 51.85319793 12.02501405 56.69605607 12.01865101 61.53900146 C12.01355952 66.62626361 12.01829117 71.71351879 12.02142334 76.80078125 C12.02505385 85.34115915 12.02028796 93.88150237 12.01074219 102.421875 C11.99985942 112.2716805 12.00338564 122.12140317 12.014395 131.97120667 C12.02349401 140.45395106 12.02474039 148.93667063 12.01951766 157.41941833 C12.01641231 162.47445024 12.01594895 167.52944331 12.02259064 172.58447266 C12.02840161 177.33864181 12.02429907 182.09270499 12.01280212 186.84686279 C12.0101755 188.58339259 12.01088612 190.31993142 12.01532745 192.05645752 C12.07826535 219.18193494 12.07826535 219.18193494 4.33203125 226.9921875 C-0.53174195 231.41834615 -4.70410051 231.87828716 -11.1328125 231.78125 C-16.89127865 231.18627933 -22.27093761 228.76262141 -26.25 224.5625 C-30.20266452 217.44503314 -31.39926627 210.96480395 -31.39717102 202.87353516 C-31.40084771 202.10664399 -31.4045244 201.33975283 -31.4083125 200.54962254 C-31.41931256 197.98359568 -31.42318696 195.41760937 -31.42700195 192.8515625 C-31.43326952 191.00987114 -31.43991658 189.16818104 -31.44691467 187.32649231 C-31.46792744 181.28017045 -31.47831636 175.23384842 -31.48828125 169.1875 C-31.49233023 167.10230496 -31.4964472 165.01711005 -31.50063133 162.93191528 C-31.51967906 153.13151322 -31.53390942 143.33111865 -31.5422433 133.53070164 C-31.55200617 122.23767198 -31.57830269 110.94483882 -31.61874419 99.65187836 C-31.64896582 90.91109303 -31.66371802 82.17036382 -31.66702431 73.42952728 C-31.66936841 68.21499403 -31.67824501 63.0006708 -31.70348549 57.78619385 C-31.72687635 52.87446274 -31.73095538 47.96307828 -31.72072411 43.05130577 C-31.72023126 41.25713633 -31.72647681 39.46294919 -31.74028015 37.66883278 C-31.82446792 26.06913008 -31.7662705 14.129411 -24.4375 4.4375 C-17.88978868 -2.14286823 -8.48758311 -3.53784535 0 0 Z " fill="#F3C80B" transform="translate(504.25,215.4375)"/>
<path d="M0 0 C1.19779083 -0.0030011 2.39558167 -0.0060022 3.62966919 -0.00909424 C5.57037796 0.00942596 5.57037796 0.00942596 7.55029297 0.02832031 C8.88882231 0.03137812 10.22735483 0.03325408 11.56588745 0.03399658 C14.36859343 0.0385969 17.17101164 0.05301445 19.97363281 0.07519531 C23.57303024 0.10353221 27.17220153 0.11441247 30.77169991 0.11887741 C33.53398924 0.12302543 36.2962325 0.1328368 39.05849838 0.1447525 C41.03338853 0.1532476 43.00828699 0.15973185 44.98318481 0.16619873 C46.77041458 0.18061005 46.77041458 0.18061005 48.59375 0.1953125 C50.17568649 0.2055545 50.17568649 0.2055545 51.7895813 0.21600342 C54.16748047 0.35644531 54.16748047 0.35644531 55.16748047 1.35644531 C55.26118671 3.13636455 55.28492318 4.92001271 55.28100586 6.70239258 C55.28089256 8.41405357 55.28089256 8.41405357 55.28077698 10.16029358 C55.27561569 11.40193771 55.27045441 12.64358185 55.26513672 13.92285156 C55.26372177 15.18661118 55.26230682 16.45037079 55.260849 17.75242615 C55.25618629 21.1176942 55.24719527 24.48289521 55.23614502 27.84814453 C55.22592893 31.27994201 55.22135096 34.7117464 55.21630859 38.14355469 C55.20525427 44.88120356 55.18849757 51.61882056 55.16748047 58.35644531 C46.97057486 58.37957241 38.77368279 58.39736227 30.57675266 58.40825748 C26.7709647 58.41348551 22.96519898 58.42058169 19.15942383 58.43188477 C15.48955503 58.44271651 11.81970769 58.44872275 8.14982414 58.45132256 C6.74673054 58.45317629 5.34363818 58.45679591 3.94055367 58.46217537 C1.98178367 58.46938951 0.02299226 58.4698534 -1.93579102 58.4699707 C-3.05275864 58.47219131 -4.16972626 58.47441193 -5.32054138 58.47669983 C-7.83251953 58.35644531 -7.83251953 58.35644531 -8.83251953 57.35644531 C-8.9417066 55.68482978 -8.98158758 54.00863034 -8.99365234 52.33349609 C-9.00325989 51.26213409 -9.01286743 50.19077209 -9.02276611 49.08694458 C-9.02701599 47.92033295 -9.03126587 46.75372131 -9.03564453 45.55175781 C-9.0413446 44.36170135 -9.04704468 43.1716449 -9.05291748 41.94552612 C-9.06238481 39.42186375 -9.0689083 36.89818892 -9.07275391 34.37451172 C-9.08246047 30.50498985 -9.11346884 26.63599863 -9.14501953 22.76660156 C-9.15154901 20.31999015 -9.1567997 17.87337492 -9.16064453 15.42675781 C-9.17916473 13.68291306 -9.17916473 13.68291306 -9.19805908 11.90383911 C-9.19505798 10.82617279 -9.19205688 9.74850647 -9.18896484 8.63818359 C-9.19261047 7.68855743 -9.1962561 6.73893127 -9.20001221 5.76052856 C-8.83251953 3.35644531 -8.83251953 3.35644531 -7.67477417 1.5486145 C-5.05691337 -0.14546889 -3.10629931 -0.01072169 0 0 Z " fill="#000100" transform="translate(38.83251953125,148.6435546875)"/>
<path d="M0 0 C0.33 0 0.66 0 1 0 C1 7.26 1 14.52 1 22 C-6.59 22 -14.18 22 -22 22 C-20.6427601 19.2855202 -19.20668405 19.11704557 -16.4375 17.9375 C-8.71115866 14.19609116 -3.2476979 7.91626364 0 0 Z " fill="#000100" transform="translate(1279,623)"/>
<path d="M0 0 C4 5 4 5 5.640625 7.0625 C10.25212262 12.61420588 15.08644055 16.69548018 22 19 C22 19.66 22 20.32 22 21 C14.74 21 7.48 21 0 21 C0 14.07 0 7.14 0 0 Z " fill="#000100" transform="translate(0,624)"/>
<path d="M0 0 C6.93 0 13.86 0 21 0 C21 6.93 21 13.86 21 21 C20.34 21 19.68 21 19 21 C18.505 19.845 18.01 18.69 17.5 17.5 C13.67418598 9.87540952 7.52731531 4.76365765 0 1 C0 0.67 0 0.34 0 0 Z " fill="#000100" transform="translate(1259,0)"/>
<path d="M0 0 C6.93 0 13.86 0 21 0 C19.25915305 1.16056463 17.50759784 2.3059504 15.73046875 3.41015625 C9.45965374 7.48474112 5.70345142 11.54398334 2 18 C1.34 18.99 0.68 19.98 0 21 C0 14.07 0 7.14 0 0 Z " fill="#000100" transform="translate(0,0)"/>
</svg>
